<?xml version="1.0" encoding="utf-8"?>
<svg viewBox="0 0 500 500" xmlns="http://www.w3.org/2000/svg">
  <path style="fill: rgb(237, 167, 81);" d="M 356.739 408.883 C 334.854 408.883 310.946 398.692 289.389 357.412 C 285.783 350.511 288.455 341.992 295.357 338.386 C 302.259 334.778 310.777 337.453 314.379 344.356 C 325.056 364.796 336.003 376.322 347.849 379.595 C 358.251 382.471 370.127 379.301 382.695 375.947 C 400.958 371.076 423.684 365.012 446.176 378.644 C 452.835 382.681 454.962 391.353 450.926 398.013 C 446.89 404.674 438.221 406.801 431.562 402.764 C 419.933 395.716 408.178 398.337 389.961 403.196 C 379.958 405.866 368.647 408.882 356.739 408.883 Z"/>
  <path style="fill: rgb(252, 215, 157);" d="M 450.929 398.013 C 454.964 391.353 452.836 382.681 446.179 378.644 C 442.674 376.521 439.163 374.875 435.666 373.628 C 431.188 378.668 425.405 387.523 424.433 399.629 C 426.849 400.324 429.211 401.338 431.565 402.764 C 438.223 406.801 446.892 404.674 450.929 398.013 Z"/>
  <g transform="matrix(1.100582, 0, 0, 1.100797, -81.773743, -79.190041)" style="">
    <path style="fill:#EDA751;" d="M335.765,512c-10.256,0-19.111-7.683-20.331-18.118c-2.602-22.255-2.506-48.996,0.257-71.533 c1.378-11.235,11.598-19.227,22.839-17.849c11.235,1.378,19.226,11.603,17.849,22.839c-2.354,19.194-2.442,42.868-0.231,61.784 c1.315,11.243-6.734,21.422-17.977,22.736C337.363,511.954,336.559,512,335.765,512z"/>
    <path style="fill:#EDA751;" d="M272.256,512c-10.256,0-19.111-7.683-20.331-18.118c-2.602-22.255-2.506-48.996,0.257-71.533 c1.377-11.235,11.602-19.227,22.839-17.849c11.235,1.378,19.226,11.603,17.849,22.839c-2.354,19.194-2.442,42.868-0.231,61.784 c1.315,11.243-6.734,21.422-17.977,22.736C273.854,511.954,273.05,512,272.256,512z"/>
    <path style="fill:#EDA751;" d="M202.468,460.546c-3.09,0-6.226-0.701-9.175-2.181c-10.118-5.076-14.205-17.392-9.128-27.51 c9.74-19.412,12.179-34.645,14.332-48.084c2.316-14.457,4.71-29.407,16.157-42.221c7.541-8.443,20.499-9.172,28.939-1.63 c8.441,7.541,9.172,20.498,1.63,28.939c-3.288,3.682-4.405,9.868-6.252,21.395c-2.36,14.736-5.592,34.918-18.169,59.983 C217.207,456.405,209.976,460.546,202.468,460.546z"/>
  </g>
  <g transform="matrix(1.100582, 0, 0, 1.100797, -81.773743, -79.190041)" style="">
    <path style="opacity:0.2;fill:#A35F00;enable-background:new    ;" d="M390.361,416.776c-10.764-2.972-20.711-13.443-30.412-32.012 c-3.273-6.271-11.012-8.701-17.284-5.423c-6.271,3.276-8.699,11.014-5.423,17.284c14.988,28.693,31.225,40.842,46.934,44.97 c7.646-7.113,14.232-15.232,19.517-24.126C399.026,418.01,394.561,417.937,390.361,416.776z"/>
    <path style="opacity:0.2;fill:#A35F00;enable-background:new    ;" d="M338.53,404.5c-11.241-1.378-21.46,6.614-22.839,17.849 c-1.911,15.59-2.544,33.19-1.893,49.926c14.529-1.177,28.288-4.924,40.762-10.756c-0.081-11.724,0.524-23.629,1.818-34.18 C357.756,416.103,349.764,405.878,338.53,404.5z"/>
    <path style="opacity:0.2;fill:#A35F00;enable-background:new    ;" d="M275.021,404.5c-11.237-1.378-21.462,6.614-22.839,17.849 c-1.446,11.797-2.154,24.744-2.135,37.598c12.545,6.343,26.486,10.541,41.268,12.076c-0.647-14.935-0.13-30.953,1.554-44.684 C294.247,416.103,286.256,405.878,275.021,404.5z"/>
    <path style="opacity:0.2;fill:#A35F00;enable-background:new    ;" d="M243.594,338.921c-8.44-7.542-21.398-6.812-28.939,1.63 c-11.448,12.814-13.842,27.763-16.157,42.221c-0.821,5.127-1.688,10.517-2.982,16.298c5.827,16.455,15.772,31.151,28.676,43.005 c9.784-21.764,12.65-39.518,14.78-52.82c1.846-11.527,2.963-17.712,6.252-21.394C252.766,359.418,252.035,346.461,243.594,338.921z "/>
  </g>
  <ellipse style="fill: rgb(252, 214, 144);" cx="252.715" cy="322.743" rx="104.038" ry="96.693"/>
  <path style="opacity: 0.15; fill: rgb(193, 122, 0);" d="M 237.525 418.412 C 189.981 387.191 204.715 323.203 212.786 295.219 L 212.786 233.431 C 175.144 247.984 148.676 282.49 148.676 322.744 C 148.676 371.351 187.267 411.576 237.525 418.412 Z"/>
  <path style="fill: rgb(237, 167, 81);" d="M 189.403 155.072 C 209.761 137.985 223.355 109.303 194.638 66.901 C 165.695 24.165 122.603 13.453 88.963 17.417 C 80.669 18.394 73.71 24.234 71.307 32.235 C 61.562 64.683 64.626 108.99 101.68 144.919 C 138.442 180.566 169.043 172.159 189.403 155.072 Z"/>
  <path style="fill: rgb(255, 145, 171);" d="M 69.952 37.199 C 61.963 69.104 66.48 110.786 101.678 144.919 C 133.543 175.818 160.773 173.61 180.724 161.348 C 167.003 68.191 107.068 43.487 69.952 37.199 Z"/>
  <path style="fill: rgb(237, 167, 81);" d="M 316.035 155.072 C 295.676 137.985 282.083 109.303 310.799 66.901 C 339.742 24.165 382.833 13.453 416.474 17.417 C 424.768 18.394 431.728 24.234 434.13 32.235 C 443.875 64.683 440.81 108.99 403.757 144.919 C 366.995 180.566 336.393 172.159 316.035 155.072 Z"/>
  <path style="fill: rgb(255, 145, 171);" d="M 435.484 37.199 C 443.473 69.104 438.957 110.786 403.757 144.919 C 371.894 175.818 344.662 173.61 324.713 161.348 C 338.434 68.191 398.368 43.487 435.484 37.199 Z"/>
  <path style="fill: rgb(255, 220, 156);" d="M 429.848 180.86 C 429.848 261.864 350.544 297.343 252.718 297.343 C 154.891 297.343 75.588 261.864 75.588 180.86 C 75.588 99.856 154.891 34.188 252.718 34.188 C 350.544 34.188 429.848 99.856 429.848 180.86 Z"/>
  <path style="opacity: 0.15; fill: rgb(193, 122, 0);" d="M 158.14 56.834 C 108.532 82.827 75.588 128.654 75.588 180.86 C 75.588 250.494 134.191 286.486 212.787 295.219 C 99.966 227.815 114.68 137.149 158.14 56.834 Z"/>
  <g transform="matrix(1.100582, 0, 0, 1.100797, -81.773743, -79.190041)" style="">
    <ellipse style="fill:#FF91AB;" cx="200.34" cy="251.41" rx="29.14" ry="23.21"/>
    <ellipse style="fill:#FF91AB;" cx="358.29" cy="251.41" rx="29.14" ry="23.21"/>
  </g>
  <g transform="matrix(1.100582, 0, 0, 1.100797, -81.773743, -79.190041)" style="">
    <path style="fill:#495059;" d="M217.318,235.764c-4.143,0-7.5-3.357-7.5-7.5v-10.291c0-4.143,3.357-7.5,7.5-7.5s7.5,3.357,7.5,7.5 v10.291C224.818,232.406,221.461,235.764,217.318,235.764z"/>
    <path style="fill:#495059;" d="M341.303,235.764c-4.143,0-7.5-3.357-7.5-7.5v-10.291c0-4.143,3.357-7.5,7.5-7.5s7.5,3.357,7.5,7.5 v10.291C348.803,232.406,345.446,235.764,341.303,235.764z"/>
  </g>
  <path style="fill: rgb(255, 145, 171);" d="M 257.544 203.938 C 257.544 186.309 243.257 172.018 225.631 172.018 C 208.004 172.018 193.717 186.309 193.717 203.938 C 193.717 221.568 208.004 214.221 225.631 214.221 C 243.257 214.221 257.544 221.568 257.544 203.938 Z"/>
  <g transform="matrix(1.100582, 0, 0, 1.100797, -81.773743, -79.190041)" style="">
    <path style="fill:#495059;" d="M159.245,256.209c-3.36,0-6.418-2.275-7.27-5.684c-1.004-4.018,1.439-8.09,5.458-9.095 c8.105-2.026,27.426-3.472,36.838-2.226c4.105,0.543,6.995,4.313,6.452,8.419c-0.543,4.107-4.313,6.996-8.419,6.452 c-7.304-0.966-24.854,0.311-31.234,1.907C160.459,256.136,159.847,256.209,159.245,256.209z"/>
    <path style="fill:#495059;" d="M168.528,290.736c-2.3,0-4.569-1.054-6.04-3.046c-2.46-3.332-1.753-8.027,1.58-10.488 c6.72-4.961,24.032-13.657,33.21-16.095c4.006-1.059,8.11,1.322,9.174,5.324c1.063,4.003-1.32,8.11-5.324,9.174 c-7.126,1.892-22.862,9.76-28.151,13.665C171.636,290.26,170.075,290.736,168.528,290.736z"/>
    <path style="fill:#495059;" d="M399.378,256.209c-0.603,0-1.214-0.073-1.824-0.226c-6.381-1.595-23.93-2.875-31.234-1.907 c-4.104,0.543-7.876-2.346-8.419-6.452s2.346-7.876,6.452-8.419c9.414-1.245,28.73,0.199,36.838,2.226 c4.019,1.005,6.462,5.077,5.458,9.095C405.796,253.934,402.738,256.209,399.378,256.209z"/>
    <path style="fill:#495059;" d="M390.095,290.736c-1.548,0-3.108-0.477-4.448-1.466c-5.29-3.905-21.027-11.773-28.152-13.665 c-4.004-1.064-6.387-5.171-5.324-9.174c1.065-4.004,5.175-6.383,9.174-5.324c9.177,2.438,26.489,11.133,33.211,16.095 c3.332,2.46,4.04,7.155,1.58,10.488C394.664,289.683,392.394,290.736,390.095,290.736z"/>
  </g>
  <path style="fill: rgb(237, 167, 81);" d="M 335.288 331.028 C 326.93 331.028 318.9 326.364 314.993 318.341 C 309.537 307.138 314.194 293.635 325.394 288.178 C 330.002 285.932 343.727 274.34 354.568 257.719 C 362.89 244.96 371.786 225.87 366.905 207.384 C 363.724 195.337 370.91 182.991 382.955 179.81 C 395.005 176.629 407.344 183.817 410.524 195.863 C 426.891 257.855 369.662 316.803 345.148 328.746 C 341.969 330.293 338.602 331.028 335.288 331.028 Z"/>
  <g transform="matrix(1.100582, 0, 0, 1.100797, -81.773743, -79.190041)" style="">
    <path style="fill:#7CC5E6;" d="M389.893,163.927c5.542,6.11,13.669,17.197,14.267,30.176c0.517,11.211-8.168,20.943-19.391,20.945 c-10.733,0.002-19.434-8.698-19.434-19.43c0-13.597,8.507-25.291,14.263-31.648C382.354,160.928,387.135,160.887,389.893,163.927z"/>
    <path style="fill:#7CC5E6;" d="M271.216,137.237c5.542,6.11,13.669,17.197,14.267,30.175c0.517,11.211-8.168,20.943-19.391,20.945 c-10.733,0.002-19.434-8.698-19.434-19.43c0-13.597,8.507-25.291,14.263-31.648C263.678,134.238,268.459,134.197,271.216,137.237z"/>
  </g>
  <g transform="matrix(0.945318, 0, 0, 0.955265, 19.775961, 4.025795)" style=""/>
  <g transform="matrix(0.945318, 0, 0, 0.955265, 19.775961, 4.025795)" style=""/>
  <g transform="matrix(0.945318, 0, 0, 0.955265, 19.775961, 4.025795)" style=""/>
  <g transform="matrix(0.945318, 0, 0, 0.955265, 19.775961, 4.025795)" style=""/>
  <g transform="matrix(0.945318, 0, 0, 0.955265, 19.775961, 4.025795)" style=""/>
  <g transform="matrix(0.945318, 0, 0, 0.955265, 19.775961, 4.025795)" style=""/>
  <g transform="matrix(0.945318, 0, 0, 0.955265, 19.775961, 4.025795)" style=""/>
  <g transform="matrix(0.945318, 0, 0, 0.955265, 19.775961, 4.025795)" style=""/>
  <g transform="matrix(0.945318, 0, 0, 0.955265, 19.775961, 4.025795)" style=""/>
  <g transform="matrix(0.945318, 0, 0, 0.955265, 19.775961, 4.025795)" style=""/>
  <g transform="matrix(0.945318, 0, 0, 0.955265, 19.775961, 4.025795)" style=""/>
  <g transform="matrix(0.945318, 0, 0, 0.955265, 19.775961, 4.025795)" style=""/>
  <g transform="matrix(0.945318, 0, 0, 0.955265, 19.775961, 4.025795)" style=""/>
  <g transform="matrix(0.945318, 0, 0, 0.955265, 19.775961, 4.025795)" style=""/>
  <g transform="matrix(0.945318, 0, 0, 0.955265, 19.775961, 4.025795)" style=""/>
</svg>