<?xml version="1.0" encoding="utf-8"?>
<svg viewBox="0 0 500 500" xmlns="http://www.w3.org/2000/svg" xmlns:bx="https://boxy-svg.com">
  <path style="fill: rgb(237, 167, 81);" d="M 340.535 381.438 C 317.869 384.211 295.092 380.424 275.295 361.61 C 269.507 356.108 269.303 346.986 274.842 341.235 C 280.381 335.483 289.562 335.283 295.352 340.784 C 311.908 356.521 333.069 357.43 370.81 344.039 C 381.032 340.413 383.541 333.682 387.82 320.014 C 392.851 303.945 399.739 281.937 430.134 272.614 C 437.778 270.265 445.911 274.527 448.274 282.132 C 450.638 289.736 446.348 297.804 438.692 300.152 C 423.607 304.78 420.373 313.081 415.522 328.574 C 411.034 342.914 404.886 362.554 380.569 371.182 C 367.711 375.744 354.143 379.773 340.535 381.438 Z"/>
  <path style="fill: rgb(252, 215, 157);" d="M 448.275 282.131 C 445.911 274.526 437.778 270.264 430.135 272.613 C 424.39 274.375 419.487 276.592 415.275 279.135 C 416.065 287.629 419.366 298.531 428.819 304.767 C 431.427 302.917 434.628 301.399 438.694 300.152 C 446.349 297.804 450.639 289.736 448.275 282.131 Z"/>
  <g transform="matrix(0.918616, 0, 0, 0.912564, 15.802115, 15.511716)" style="">
    <path style="fill:#EDA751;" d="M205.69,512c-13.954,0-25.267-11.312-25.267-25.266c0-7.103,0.045-15.529,0.09-24.46 c0.113-21.552,0.241-45.98-0.204-61.368c-0.401-13.949,10.58-25.582,24.529-25.984c13.929-0.421,25.581,10.578,25.984,24.527 c0.468,16.249,0.338,41.134,0.223,63.09c-0.047,8.834-0.09,17.17-0.09,24.196C230.956,500.688,219.644,512,205.69,512z"/>
    <path style="fill:#EDA751;" d="M292.343,512c-13.954,0-25.266-11.312-25.266-25.266c0-7.032-0.043-15.375-0.09-24.217 c-0.115-21.948-0.244-46.824,0.222-63.067c0.402-13.95,12.084-24.945,25.983-24.529c13.948,0.402,24.931,12.034,24.53,25.983 c-0.443,15.384-0.316,39.804-0.204,61.35c0.047,8.938,0.091,17.372,0.091,24.481C317.609,500.688,306.298,512,292.343,512z"/>
    <path style="fill:#EDA751;" d="M132.46,433.244c-3.739,0-7.536-0.833-11.118-2.592c-12.526-6.151-17.694-21.29-11.543-33.816 c11.53-23.484,24.848-75.996,26.302-86.727c1.875-13.828,14.607-23.52,28.431-21.645c13.829,1.874,23.518,14.603,21.644,28.43 c-2.107,15.553-16.756,73.171-31.018,102.214C150.767,428.051,141.793,433.244,132.46,433.244z"/>
    <path style="fill:#EDA751;" d="M365.573,433.244c-9.334,0-18.307-5.191-22.698-14.136c-14.262-29.043-28.911-86.661-31.018-102.214 c-1.874-13.827,7.816-26.556,21.644-28.43c13.816-1.878,26.556,7.816,28.431,21.645c1.453,10.731,14.771,63.243,26.301,86.727 c6.151,12.526,0.983,27.665-11.543,33.816C373.108,432.411,369.311,433.244,365.573,433.244z"/>
  </g>
  <g transform="matrix(0.918616, 0, 0, 0.912564, 15.802115, 15.511716)" style="">
    <path style="opacity:0.2;fill:#A35F00;enable-background:new    ;" d="M204.838,374.921c-13.949,0.402-24.93,12.035-24.529,25.984 c0.321,11.127,0.343,26.981,0.288,43.057c15.218,8.291,32.283,13.905,50.461,16.154c0.111-21.346,0.215-45.012-0.236-60.668 C230.419,385.499,218.767,374.5,204.838,374.921z"/>
    <path style="opacity:0.2;fill:#A35F00;enable-background:new    ;" d="M293.192,374.921c-13.899-0.416-25.581,10.58-25.983,24.529 c-0.45,15.655-0.346,39.323-0.234,60.666c18.178-2.249,35.242-7.863,50.46-16.154c-0.055-16.075-0.033-31.931,0.287-43.059 C318.123,386.955,307.14,375.322,293.192,374.921z"/>
    <path style="opacity:0.2;fill:#A35F00;enable-background:new    ;" d="M361.932,310.109c-1.875-13.829-14.615-23.523-28.431-21.645 c-13.829,1.874-23.518,14.603-21.644,28.43c2.107,15.553,16.756,73.171,31.018,102.214c0.792,1.612,1.737,3.098,2.801,4.458 c14.907-13.994,26.399-31.196,33.202-50.394C370.439,348.295,362.997,317.975,361.932,310.109z"/>
    <path style="opacity:0.2;fill:#A35F00;enable-background:new    ;" d="M164.532,288.464c-13.824-1.875-26.556,7.817-28.431,21.645 c-1.065,7.867-8.507,38.186-16.946,63.064c6.803,19.198,18.295,36.4,33.202,50.394c1.065-1.36,2.01-2.846,2.802-4.458 c14.262-29.043,28.911-86.661,31.018-102.214C188.05,303.067,178.36,290.338,164.532,288.464z"/>
  </g>
  <ellipse style="fill: rgb(252, 214, 144);" cx="244.557" cy="319.067" rx="107.056" ry="98.822"/>
  <path style="opacity: 0.15; fill: rgb(193, 122, 0);" d="M 228.92 416.836 C 180 384.929 193.254 322.313 203.465 300.197 L 203.465 227.791 C 164.734 242.665 137.499 277.927 137.499 319.066 C 137.5 368.741 177.207 409.85 228.92 416.836 Z"/>
  <path style="fill: rgb(237, 167, 81);" d="M 179.405 156.972 C 200.353 139.51 214.339 110.198 184.792 66.865 C 155.011 23.19 110.672 12.242 76.058 16.293 C 67.524 17.291 60.363 23.261 57.891 31.436 C 47.864 64.598 51.018 109.876 89.143 146.594 C 126.969 183.026 158.457 174.433 179.405 156.972 Z"/>
  <path style="fill: rgb(255, 145, 171);" d="M 56.498 36.511 C 48.277 69.116 52.925 111.714 89.143 146.595 C 121.93 178.173 149.948 175.916 170.475 163.386 C 156.358 68.182 94.688 42.936 56.498 36.511 Z"/>
  <path style="fill: rgb(237, 167, 81);" d="M 309.702 156.972 C 288.754 139.51 274.768 110.198 304.315 66.865 C 334.095 23.19 378.434 12.242 413.049 16.293 C 421.583 17.291 428.744 23.261 431.216 31.436 C 441.243 64.598 438.089 109.876 399.964 146.594 C 362.138 183.026 330.649 174.433 309.702 156.972 Z"/>
  <path style="fill: rgb(255, 145, 171);" d="M 432.609 36.511 C 440.83 69.116 436.182 111.714 399.965 146.595 C 367.178 178.173 339.159 175.916 318.632 163.386 C 332.749 68.182 394.418 42.936 432.609 36.511 Z"/>
  <path style="fill: rgb(255, 220, 156);" d="M 426.809 183.327 C 426.809 266.11 345.21 302.369 244.553 302.369 C 143.896 302.369 62.297 266.111 62.297 183.327 C 62.297 100.543 143.896 33.434 244.553 33.434 C 345.21 33.434 426.809 100.544 426.809 183.327 Z"/>
  <path style="opacity: 0.15; fill: rgb(193, 122, 0);" d="M 147.238 56.576 C 96.195 83.14 62.297 129.975 62.297 183.327 C 62.297 254.491 122.597 291.272 203.466 300.197 C 87.38 231.312 102.519 138.656 147.238 56.576 Z"/>
  <g transform="matrix(0.918606, -0.004582, 0.004612, 0.912554, 14.819063, 16.655205)" style="">
    <path style="fill:#495059;" d="M 172.594 193.702 C 168.451 193.702 165.094 190.344 165.094 186.202 L 165.094 173.516 C 165.094 169.374 168.451 166.016 172.594 166.016 C 176.737 166.016 180.094 169.374 180.094 173.516 L 180.094 186.202 C 180.094 190.344 176.736 193.702 172.594 193.702 Z"/>
    <path style="fill:#495059;" d="M 325.439 193.702 C 321.296 193.702 317.939 190.344 317.939 186.202 L 317.939 173.516 C 317.939 169.374 321.296 166.016 325.439 166.016 C 329.582 166.016 332.939 169.374 332.939 173.516 L 332.939 186.202 C 332.939 190.344 329.581 193.702 325.439 193.702 Z"/>
    <path style="fill:#495059;" d="M 260.494 247.439 C 258.401 247.439 256.319 246.568 254.837 244.866 C 251.179 240.667 245.897 238.26 240.345 238.26 C 234.792 238.26 229.508 240.668 225.85 244.866 C 223.129 247.989 218.391 248.315 215.269 245.593 C 212.146 242.872 211.821 238.135 214.543 235.012 C 221.052 227.544 230.456 223.26 240.347 223.26 C 250.237 223.26 258.493 224.631 265 232.099 C 267.722 235.222 268.542 242.872 265.419 245.593 C 263.997 246.831 262.242 247.439 260.494 247.439 Z" transform="matrix(-0.999976, -0.006955, 0.006864, -0.999977, 489.011206, 439.806305)" bx:origin="0.595 -0.174"/>
    <path style="fill:#495059;" d="M 101.004 218.906 C 97.644 218.906 94.586 216.631 93.733 213.223 C 92.729 209.205 95.172 205.133 99.191 204.128 C 109.041 201.665 132.513 199.909 143.95 201.421 C 148.056 201.964 150.946 205.732 150.403 209.839 C 149.86 213.946 146.08 216.83 141.985 216.292 C 132.636 215.056 111.003 216.637 102.828 218.68 C 102.218 218.833 101.606 218.906 101.004 218.906 Z"/>
    <path style="fill:#495059;" d="M 112.445 261.471 C 110.145 261.471 107.876 260.417 106.405 258.425 C 103.945 255.093 104.652 250.397 107.985 247.937 C 116.155 241.906 137.19 231.339 148.337 228.38 C 152.347 227.318 156.448 229.701 157.511 233.705 C 158.574 237.709 156.19 241.815 152.187 242.878 C 143.071 245.298 123.673 255.001 116.894 260.006 C 115.554 260.994 113.992 261.471 112.445 261.471 Z"/>
    <path style="fill:#495059;" d="M 397.028 218.906 C 396.425 218.906 395.814 218.833 395.204 218.68 C 387.028 216.636 365.398 215.055 356.047 216.292 C 351.953 216.829 348.173 213.947 347.629 209.839 C 347.086 205.732 349.976 201.964 354.082 201.421 C 365.517 199.911 388.99 201.665 398.841 204.128 C 402.86 205.132 405.303 209.204 404.299 213.223 C 403.446 216.631 400.389 218.906 397.028 218.906 Z"/>
    <path style="fill:#495059;" d="M 385.587 261.471 C 384.039 261.471 382.479 260.994 381.139 260.005 C 374.36 255 354.962 245.297 345.846 242.877 C 341.843 241.814 339.459 237.707 340.522 233.704 C 341.585 229.701 345.688 227.317 349.696 228.379 C 360.842 231.338 381.878 241.905 390.048 247.936 C 393.381 250.396 394.088 255.092 391.628 258.424 C 390.156 260.417 387.887 261.471 385.587 261.471 Z"/>
  </g>
  <g transform="matrix(0.918616, 0, 0, 0.912564, 15.802115, 15.511716)" style=""/>
  <g transform="matrix(0.918616, 0, 0, 0.912564, 15.802115, 15.511716)" style=""/>
  <g transform="matrix(0.918616, 0, 0, 0.912564, 15.802115, 15.511716)" style=""/>
  <g transform="matrix(0.918616, 0, 0, 0.912564, 15.802115, 15.511716)" style=""/>
  <g transform="matrix(0.918616, 0, 0, 0.912564, 15.802115, 15.511716)" style=""/>
  <g transform="matrix(0.918616, 0, 0, 0.912564, 15.802115, 15.511716)" style=""/>
  <g transform="matrix(0.918616, 0, 0, 0.912564, 15.802115, 15.511716)" style=""/>
  <g transform="matrix(0.918616, 0, 0, 0.912564, 15.802115, 15.511716)" style=""/>
  <g transform="matrix(0.918616, 0, 0, 0.912564, 15.802115, 15.511716)" style=""/>
  <g transform="matrix(0.918616, 0, 0, 0.912564, 15.802115, 15.511716)" style=""/>
  <g transform="matrix(0.918616, 0, 0, 0.912564, 15.802115, 15.511716)" style=""/>
  <g transform="matrix(0.918616, 0, 0, 0.912564, 15.802115, 15.511716)" style=""/>
  <g transform="matrix(0.918616, 0, 0, 0.912564, 15.802115, 15.511716)" style=""/>
  <g transform="matrix(0.918616, 0, 0, 0.912564, 15.802115, 15.511716)" style=""/>
  <g transform="matrix(0.918616, 0, 0, 0.912564, 15.802115, 15.511716)" style=""/>
</svg>