<?xml version="1.0" encoding="utf-8"?>
<svg viewBox="0 0 500 500" xmlns="http://www.w3.org/2000/svg">
  <path style="fill: rgb(237, 167, 81);" d="M 370.736 408.712 C 336.374 408.712 316.906 383.583 299.595 361.24 C 298.45 359.762 297.3 358.28 296.146 356.801 C 291.579 350.953 292.408 342.339 298 337.561 C 303.593 332.783 311.827 333.653 316.394 339.5 C 317.571 341.007 318.741 342.517 319.908 344.023 C 338.93 368.574 351.812 383.5 375.68 381.111 C 391.98 379.481 400.707 373.276 409.948 366.707 C 419.546 359.883 430.426 352.149 447.581 352.149 C 454.8 352.149 460.654 358.27 460.654 365.822 C 460.654 373.374 454.8 379.496 447.581 379.496 C 438.471 379.496 432.97 383.407 424.646 389.324 C 414.173 396.77 401.138 406.038 378.169 408.335 C 375.615 408.589 373.139 408.712 370.736 408.712 Z"/>
  <path style="fill: rgb(252, 215, 157);" d="M 447.579 352.148 C 440.308 352.148 434.173 353.545 428.777 355.666 C 428.28 362.664 429.165 372.613 435.515 382.344 C 439.165 380.535 442.895 379.495 447.579 379.495 C 454.799 379.495 460.652 373.373 460.652 365.821 C 460.652 358.27 454.799 352.148 447.579 352.148 Z"/>
  <g transform="matrix(0.903947, 0, 0, 0.945494, 39.348835, 1.945654)" style="">
    <path style="fill:#EDA751;" d="M285.79,512c-12.141,0-22.331-9.461-23.076-21.741c-2.64-43.611,0.382-73.47,1.835-87.82 c1.287-12.714,12.644-21.975,25.351-20.691c12.715,1.287,21.978,12.637,20.692,25.352c-1.433,14.149-4.098,40.487-1.684,80.363 c0.772,12.756-8.943,23.722-21.698,24.495C286.735,511.986,286.26,512,285.79,512z"/>
    <path style="fill:#EDA751;" d="M203.497,512c-12.14,0-22.331-9.461-23.074-21.741c-2.641-43.608,0.382-73.47,1.834-87.821 c1.287-12.714,12.631-21.975,25.352-20.691c12.714,1.287,21.977,12.637,20.69,25.352c-1.432,14.15-4.098,40.49-1.684,80.363 c0.773,12.756-8.942,23.723-21.698,24.495C204.442,511.986,203.967,512,203.497,512z"/>
  </g>
  <path style="fill: rgb(73, 80, 89);" d="M 155.805 327.845 C 134.093 327.845 106.896 322.791 86.99 301.969 C 78.822 293.426 78.822 279.573 86.99 271.03 C 95.158 262.485 108.402 262.485 116.57 271.03 C 123.516 278.295 145.793 289.783 180.381 281.255 C 191.623 278.486 202.888 285.771 205.538 297.531 C 208.187 309.291 201.222 321.072 189.977 323.844 C 185.23 325.014 172.053 327.845 155.805 327.845 Z"/>
  <path style="fill: rgb(237, 167, 81);" d="M 116.57 271.03 C 108.402 262.485 95.158 262.485 86.99 271.03 C 78.822 279.573 78.822 293.426 86.99 301.969 C 93.481 308.759 100.749 313.863 108.347 317.671 C 119.82 305.343 125.4 290.698 128.113 278.62 C 122.717 276.198 118.829 273.392 116.57 271.03 Z"/>
  <path style="opacity: 0.15;" d="M 180.381 281.254 C 170.432 283.707 161.508 284.498 153.669 284.216 C 150.563 296.448 149.031 311.909 148.279 327.632 C 150.844 327.776 153.36 327.844 155.804 327.844 C 172.052 327.844 185.229 325.013 189.976 323.842 C 201.221 321.07 208.186 309.29 205.537 297.529 C 202.888 285.77 191.623 278.485 180.381 281.254 Z"/>
  <path style="fill: rgb(73, 80, 89);" d="M 365.557 327.845 C 387.269 327.845 414.465 322.791 434.372 301.969 C 442.54 293.426 442.54 279.573 434.372 271.03 C 426.204 262.485 412.959 262.485 404.792 271.03 C 397.845 278.295 375.569 289.783 340.981 281.255 C 329.738 278.486 318.474 285.771 315.824 297.531 C 313.175 309.291 320.14 321.072 331.385 323.844 C 336.131 325.014 349.309 327.845 365.557 327.845 Z"/>
  <path style="fill: rgb(237, 167, 81);" d="M 404.792 271.03 C 412.959 262.485 426.204 262.485 434.372 271.03 C 442.54 279.573 442.54 293.426 434.372 301.969 C 427.881 308.759 420.613 313.863 413.015 317.671 C 401.542 305.343 395.962 290.698 393.249 278.62 C 398.645 276.198 402.533 273.392 404.792 271.03 Z"/>
  <path style="opacity: 0.15;" d="M 340.98 281.254 C 350.929 283.707 359.853 284.498 367.692 284.216 C 370.798 296.448 372.33 311.909 373.082 327.632 C 370.517 327.776 368.001 327.844 365.557 327.844 C 349.309 327.844 336.132 325.013 331.385 323.842 C 320.14 321.07 313.175 309.29 315.824 297.529 C 318.473 285.77 329.738 278.485 340.98 281.254 Z"/>
  <g transform="matrix(0.903947, 0, 0, 0.945494, 39.348835, 1.945654)" style="">
    <path style="opacity:0.2;fill:#A35F00;enable-background:new    ;" d="M310.371,361.798c-1.29-1.593-2.585-3.19-3.887-4.784 c-5.054-6.184-14.162-7.104-20.349-2.05c-6.186,5.053-7.103,14.163-2.051,20.349c1.278,1.564,2.549,3.132,3.815,4.696 c12.747,15.729,26.558,32.753,45.574,42.386c7.5-6.909,14.097-14.68,19.598-23.148C337.53,394.331,325.765,380.795,310.371,361.798 z"/>
    <path style="opacity:0.2;fill:#A35F00;enable-background:new    ;" d="M207.608,381.748c-12.72-1.284-24.064,7.977-25.351,20.691 c-0.792,7.822-2.048,20.263-2.601,37.016c13.838,7.84,29.388,13.268,45.991,15.652c0.05-22.261,1.652-38.116,2.653-48.007 C229.585,394.385,220.322,383.034,207.608,381.748z"/>
    <path style="opacity:0.2;fill:#A35F00;enable-background:new    ;" d="M289.901,381.748c-12.707-1.284-24.064,7.977-25.351,20.691 c-1.026,10.132-2.832,28.005-2.877,52.982c16.758-2.1,32.492-7.288,46.529-14.939c0.505-14.752,1.624-25.813,2.39-33.382 C311.879,394.385,302.616,383.034,289.901,381.748z"/>
  </g>
  <ellipse style="fill: rgb(252, 214, 144);" cx="260.679" cy="320.86" rx="96.469" ry="93.765"/>
  <path style="opacity: 0.15; fill: rgb(193, 122, 0);" d="M 246.592 413.629 C 202.508 383.355 216.17 321.307 223.654 294.172 L 223.654 234.258 C 188.751 248.37 164.208 281.828 164.208 320.863 C 164.209 367.996 199.991 407.001 246.592 413.629 Z"/>
  <path style="fill: rgb(73, 80, 89);" d="M 170.51 271.66 C 162.023 289.406 160.419 323.144 160.116 352.119 C 160.006 362.69 168.146 371.329 178.253 371.329 L 223.422 371.329 C 227.422 371.329 230.666 367.936 230.666 363.752 L 230.666 271.66 L 170.51 271.66 L 170.51 271.66 Z"/>
  <path style="fill: rgb(143, 149, 155);" d="M 211.882 371.329 L 223.421 371.329 C 227.422 371.329 230.665 367.936 230.665 363.753 L 230.665 271.66 L 211.882 271.66 L 211.882 371.329 L 211.882 371.329 Z"/>
  <path style="fill: rgb(73, 80, 89);" d="M 350.851 271.66 C 359.338 289.406 360.942 323.144 361.245 352.119 C 361.355 362.69 353.215 371.329 343.108 371.329 L 297.939 371.329 C 293.939 371.329 290.696 367.936 290.696 363.752 L 290.696 271.66 L 350.851 271.66 L 350.851 271.66 Z"/>
  <path style="fill: rgb(143, 149, 155);" d="M 309.479 371.329 L 297.939 371.329 C 293.939 371.329 290.696 367.936 290.696 363.753 L 290.696 271.66 L 309.479 271.66 L 309.479 371.329 Z"/>
  <path style="fill: rgb(237, 167, 81);" d="M 201.971 158.275 C 220.848 141.707 233.453 113.893 206.825 72.779 C 179.988 31.339 140.032 20.951 108.837 24.795 C 101.146 25.742 94.694 31.406 92.466 39.163 C 83.43 70.628 86.272 113.59 120.629 148.429 C 154.718 182.997 183.094 174.843 201.971 158.275 Z"/>
  <path style="fill: rgb(255, 145, 171);" d="M 91.211 43.977 C 83.803 74.914 87.992 115.332 120.63 148.429 C 150.177 178.39 175.426 176.249 193.924 164.36 C 181.202 74.028 125.627 50.073 91.211 43.977 Z"/>
  <path style="fill: rgb(237, 167, 81);" d="M 319.39 158.275 C 300.513 141.707 287.908 113.893 314.536 72.779 C 341.373 31.339 381.329 20.951 412.524 24.795 C 420.215 25.742 426.667 31.406 428.895 39.163 C 437.931 70.628 435.089 113.59 400.732 148.429 C 366.643 182.997 338.268 174.843 319.39 158.275 Z"/>
  <path style="fill: rgb(255, 145, 171);" d="M 430.15 43.977 C 437.558 74.914 433.369 115.332 400.732 148.429 C 371.185 178.39 345.936 176.249 327.438 164.36 C 340.16 74.028 395.734 50.073 430.15 43.977 Z"/>
  <path style="fill: rgb(255, 220, 156);" d="M 424.924 183.281 C 424.924 261.829 351.39 296.233 260.681 296.233 C 169.973 296.233 96.438 261.83 96.438 183.281 C 96.438 104.733 169.972 41.057 260.68 41.057 C 351.389 41.057 424.924 104.733 424.924 183.281 Z"/>
  <path style="opacity: 0.15; fill: rgb(193, 122, 0);" d="M 172.983 63.016 C 126.985 88.22 96.438 132.66 96.438 183.281 C 96.438 250.804 150.778 285.704 223.654 294.172 C 119.042 228.812 132.685 140.896 172.983 63.016 Z"/>
  <g transform="matrix(0.903947, 0, 0, 0.945494, 39.348835, 1.945654)" style="">
    <ellipse style="fill:#FF91AB;" cx="155.689" cy="195.29" rx="32.898" ry="26.2"/>
    <ellipse style="fill:#FF91AB;" cx="334.009" cy="195.29" rx="32.898" ry="26.2"/>
  </g>
  <g transform="matrix(0.903947, 0, 0, 0.945494, 39.348835, 1.945654)" style="">
    <path style="fill:#495059;" d="M174.865,176.66c-4.142,0-7.5-3.358-7.5-7.5v-11.618c0-4.142,3.358-7.5,7.5-7.5s7.5,3.358,7.5,7.5 v11.618C182.365,173.302,179.007,176.66,174.865,176.66z"/>
    <path style="fill:#495059;" d="M314.838,176.66c-4.143,0-7.5-3.358-7.5-7.5v-11.618c0-4.142,3.357-7.5,7.5-7.5 c4.142,0,7.5,3.358,7.5,7.5v11.618C322.338,173.302,318.98,176.66,314.838,176.66z"/>
    <path style="fill:#495059;" d="M244.851,196.753c-9.239,0-18.025-4.001-24.105-10.978c-2.721-3.123-2.396-7.86,0.727-10.582 c3.124-2.721,7.86-2.395,10.582,0.727c3.23,3.708,7.895,5.834,12.797,5.834s9.567-2.126,12.797-5.834 c2.72-3.122,7.458-3.448,10.582-0.727c3.122,2.722,3.448,7.459,0.727,10.582C262.877,192.751,254.09,196.753,244.851,196.753z"/>
    <path style="fill:#495059;" d="M109.303,199.741c-3.36,0-6.418-2.275-7.27-5.683c-1.005-4.019,1.438-8.091,5.456-9.095 c9.071-2.268,30.692-3.882,41.227-2.493c4.106,0.543,6.996,4.312,6.453,8.418s-4.308,6.995-8.418,6.453 c-8.504-1.123-28.186,0.314-35.623,2.173C110.518,199.668,109.905,199.741,109.303,199.741z"/>
    <path style="fill:#495059;" d="M119.782,238.721c-2.3,0-4.569-1.054-6.04-3.046c-2.46-3.332-1.753-8.028,1.58-10.488 c7.524-5.554,26.899-15.286,37.167-18.012c4.005-1.061,8.111,1.322,9.173,5.325c1.063,4.003-1.321,8.11-5.325,9.173 c-8.292,2.201-25.94,11.029-32.108,15.583C122.89,238.244,121.329,238.721,119.782,238.721z"/>
    <path style="fill:#495059;" d="M380.399,199.741c-0.603,0-1.215-0.073-1.825-0.226c-7.438-1.86-27.117-3.299-35.623-2.173 c-4.106,0.539-7.875-2.347-8.418-6.453c-0.542-4.106,2.347-7.875,6.453-8.418c10.533-1.392,32.155,0.225,41.227,2.493 c4.018,1.004,6.461,5.077,5.457,9.095C386.817,197.466,383.76,199.741,380.399,199.741z"/>
    <path style="fill:#495059;" d="M369.921,238.721c-1.548,0-3.107-0.477-4.448-1.466c-6.169-4.553-23.815-13.381-32.108-15.583 c-4.003-1.063-6.387-5.17-5.324-9.173s5.165-6.386,9.174-5.325c10.269,2.726,29.644,12.459,37.167,18.012 c3.333,2.46,4.04,7.156,1.58,10.488C374.49,237.667,372.221,238.721,369.921,238.721z"/>
    <path style="fill:#495059;" d="M153.802,130.721c-4.807,0-8.703,3.897-8.703,8.703v20.26c0,16.91,14.897,30.619,33.274,30.619 s33.274-13.708,33.274-30.619v-20.26c0-4.807-3.897-8.703-8.703-8.703H153.802z"/>
    <path style="fill:#495059;" d="M335.9,130.721c4.807,0,8.703,3.897,8.703,8.703v20.26c0,16.91-14.897,30.619-33.274,30.619 c-18.376,0-33.274-13.708-33.274-30.619v-20.26c0-4.807,3.897-8.703,8.703-8.703H335.9z"/>
    <path style="fill:#495059;" d="M203.884,152.407c-3.387,0-6.458-2.31-7.286-5.748c-0.969-4.027,1.511-8.077,5.538-9.046 c9.416-2.265,23.788-3.414,42.715-3.414s33.298,1.148,42.715,3.414c4.027,0.969,6.507,5.018,5.538,9.046 c-0.969,4.027-5.015,6.509-9.046,5.538c-5.686-1.368-17.103-2.998-39.208-2.998s-33.522,1.63-39.207,2.998 C205.055,152.339,204.465,152.407,203.884,152.407z"/>
  </g>
  <g style="opacity: 0.1;" transform="matrix(0.903947, 0, 0, 0.945494, 39.348835, 1.945654)"/>
  <path style="fill: rgb(255, 255, 255);" d="M 363.533 115.134 L 363.533 115.134 C 360.274 115.134 357.631 112.37 357.631 108.961 L 357.631 108.961 C 357.631 105.06 354.757 101.644 351.029 101.543 C 347.203 101.441 344.071 104.654 344.071 108.632 L 344.071 108.96 C 344.071 112.369 341.429 115.133 338.17 115.133 L 338.17 115.133 C 334.441 115.133 331.175 118.138 331.078 122.037 C 330.98 126.039 334.051 129.315 337.855 129.315 L 338.17 129.315 C 341.429 129.315 344.071 132.079 344.071 135.488 L 344.071 135.489 C 344.071 139.391 346.945 142.807 350.673 142.907 C 354.499 143.009 357.631 139.796 357.631 135.818 L 357.631 135.489 C 357.631 132.08 360.273 129.316 363.533 129.316 L 363.847 129.316 C 367.651 129.316 370.723 126.04 370.624 122.038 C 370.529 118.139 367.262 115.134 363.533 115.134 Z"/>
  <g transform="matrix(0.903947, 0, 0, 0.945494, 39.348835, 1.945654)" style=""/>
  <g transform="matrix(0.903947, 0, 0, 0.945494, 39.348835, 1.945654)" style=""/>
  <g transform="matrix(0.903947, 0, 0, 0.945494, 39.348835, 1.945654)" style=""/>
  <g transform="matrix(0.903947, 0, 0, 0.945494, 39.348835, 1.945654)" style=""/>
  <g transform="matrix(0.903947, 0, 0, 0.945494, 39.348835, 1.945654)" style=""/>
  <g transform="matrix(0.903947, 0, 0, 0.945494, 39.348835, 1.945654)" style=""/>
  <g transform="matrix(0.903947, 0, 0, 0.945494, 39.348835, 1.945654)" style=""/>
  <g transform="matrix(0.903947, 0, 0, 0.945494, 39.348835, 1.945654)" style=""/>
  <g transform="matrix(0.903947, 0, 0, 0.945494, 39.348835, 1.945654)" style=""/>
  <g transform="matrix(0.903947, 0, 0, 0.945494, 39.348835, 1.945654)" style=""/>
  <g transform="matrix(0.903947, 0, 0, 0.945494, 39.348835, 1.945654)" style=""/>
  <g transform="matrix(0.903947, 0, 0, 0.945494, 39.348835, 1.945654)" style=""/>
  <g transform="matrix(0.903947, 0, 0, 0.945494, 39.348835, 1.945654)" style=""/>
  <g transform="matrix(0.903947, 0, 0, 0.945494, 39.348835, 1.945654)" style=""/>
  <g transform="matrix(0.903947, 0, 0, 0.945494, 39.348835, 1.945654)" style=""/>
</svg>